<svg width="761" height="164" viewBox="0 0 761 164" fill="none" xmlns="http://www.w3.org/2000/svg">
<path d="M1 161.14H164" stroke="white" stroke-width="5"/>
<path d="M1 2.89642L162.814 2.89642" stroke="white" stroke-width="5"/>
<path d="M160.973 138.709L160.973 1.16696" stroke="white" stroke-width="5"/>
<path d="M2.6738 162.814L2.6738 1" stroke="white" stroke-width="5"/>
<path d="M239.364 58.1818C238.909 51.8182 236.47 46.5909 232.045 42.5C227.652 38.4091 221.848 36.3636 214.636 36.3636C209.909 36.3636 205.682 37.2727 201.955 39.0909C198.227 40.9091 195.288 43.4091 193.136 46.5909C190.985 49.7424 189.909 53.3636 189.909 57.4545C189.909 59.8182 190.303 62 191.091 64C191.879 66 193.076 67.8333 194.682 69.5C196.318 71.1364 198.364 72.6212 200.818 73.9545C203.303 75.2576 206.212 76.4242 209.545 77.4545L220.091 80.7273C224.121 81.9697 227.606 83.3636 230.545 84.9091C233.485 86.4545 235.909 88.197 237.818 90.1364C239.758 92.0455 241.197 94.1818 242.136 96.5455C243.076 98.8788 243.545 101.485 243.545 104.364C243.545 109.212 242.303 113.53 239.818 117.318C237.333 121.106 233.864 124.076 229.409 126.227C224.955 128.379 219.788 129.455 213.909 129.455C208.242 129.455 203.288 128.47 199.045 126.5C194.803 124.5 191.439 121.758 188.955 118.273C186.5 114.758 185.121 110.727 184.818 106.182H187.727C188.03 110.182 189.288 113.712 191.5 116.773C193.712 119.833 196.712 122.227 200.5 123.955C204.318 125.682 208.788 126.545 213.909 126.545C219.242 126.545 223.909 125.621 227.909 123.773C231.939 121.894 235.061 119.288 237.273 115.955C239.515 112.621 240.636 108.758 240.636 104.364C240.636 101.03 239.909 98.1061 238.455 95.5909C237 93.0455 234.712 90.803 231.591 88.8636C228.47 86.9242 224.394 85.1818 219.364 83.6364L208.818 80.3636C201.515 78.0606 196.045 75.0151 192.409 71.2273C188.803 67.4394 187 62.8485 187 57.4545C187 52.8788 188.197 48.7879 190.591 45.1818C192.985 41.5455 196.258 38.6818 200.409 36.5909C204.591 34.5 209.333 33.4545 214.636 33.4545C219.97 33.4545 224.652 34.5151 228.682 36.6364C232.712 38.7576 235.909 41.6818 238.273 45.4091C240.636 49.1364 241.97 53.3939 242.273 58.1818H239.364ZM337.739 34.9091V128H334.83L271.193 40.3636H270.83V128H267.92V34.9091H270.83L334.466 122.545H334.83V34.9091H337.739ZM359.523 128H356.432L389.705 34.9091H393.705L426.977 128H423.886L391.886 38.5454H391.523L359.523 128ZM370.068 93.6364H413.341V96.5455H370.068V93.6364ZM445.67 128V34.9091H472.943C478.155 34.9091 482.761 36.0758 486.761 38.4091C490.792 40.7424 493.943 43.9545 496.216 48.0455C498.519 52.1364 499.67 56.8485 499.67 62.1818C499.67 67.4545 498.519 72.1364 496.216 76.2273C493.943 80.2879 490.792 83.4848 486.761 85.8182C482.761 88.1212 478.155 89.2727 472.943 89.2727H447.125V86.3636H472.943C477.61 86.3636 481.731 85.3333 485.307 83.2727C488.883 81.2121 491.686 78.3636 493.716 74.7273C495.746 71.0909 496.761 66.9091 496.761 62.1818C496.761 57.4242 495.746 53.2121 493.716 49.5455C491.686 45.8788 488.883 43.0151 485.307 40.9545C481.731 38.8636 477.61 37.8182 472.943 37.8182H448.58V128H445.67ZM573.114 58.1818C572.659 51.8182 570.22 46.5909 565.795 42.5C561.402 38.4091 555.598 36.3636 548.386 36.3636C543.659 36.3636 539.432 37.2727 535.705 39.0909C531.977 40.9091 529.038 43.4091 526.886 46.5909C524.735 49.7424 523.659 53.3636 523.659 57.4545C523.659 59.8182 524.053 62 524.841 64C525.629 66 526.826 67.8333 528.432 69.5C530.068 71.1364 532.114 72.6212 534.568 73.9545C537.053 75.2576 539.962 76.4242 543.295 77.4545L553.841 80.7273C557.871 81.9697 561.356 83.3636 564.295 84.9091C567.235 86.4545 569.659 88.197 571.568 90.1364C573.508 92.0455 574.947 94.1818 575.886 96.5455C576.826 98.8788 577.295 101.485 577.295 104.364C577.295 109.212 576.053 113.53 573.568 117.318C571.083 121.106 567.614 124.076 563.159 126.227C558.705 128.379 553.538 129.455 547.659 129.455C541.992 129.455 537.038 128.47 532.795 126.5C528.553 124.5 525.189 121.758 522.705 118.273C520.25 114.758 518.871 110.727 518.568 106.182H521.477C521.78 110.182 523.038 113.712 525.25 116.773C527.462 119.833 530.462 122.227 534.25 123.955C538.068 125.682 542.538 126.545 547.659 126.545C552.992 126.545 557.659 125.621 561.659 123.773C565.689 121.894 568.811 119.288 571.023 115.955C573.265 112.621 574.386 108.758 574.386 104.364C574.386 101.03 573.659 98.1061 572.205 95.5909C570.75 93.0455 568.462 90.803 565.341 88.8636C562.22 86.9242 558.144 85.1818 553.114 83.6364L542.568 80.3636C535.265 78.0606 529.795 75.0151 526.159 71.2273C522.553 67.4394 520.75 62.8485 520.75 57.4545C520.75 52.8788 521.947 48.7879 524.341 45.1818C526.735 41.5455 530.008 38.6818 534.159 36.5909C538.341 34.5 543.083 33.4545 548.386 33.4545C553.72 33.4545 558.402 34.5151 562.432 36.6364C566.462 38.7576 569.659 41.6818 572.023 45.4091C574.386 49.1364 575.72 53.3939 576.023 58.1818H573.114ZM665.67 34.9091H668.58V96.5455C668.58 102.848 667.11 108.485 664.17 113.455C661.261 118.394 657.292 122.303 652.261 125.182C647.231 128.03 641.519 129.455 635.125 129.455C628.792 129.455 623.095 128.015 618.034 125.136C612.973 122.258 608.973 118.348 606.034 113.409C603.095 108.439 601.64 102.818 601.67 96.5455V34.9091H604.58V96.5455C604.58 102.303 605.898 107.439 608.534 111.955C611.201 116.47 614.837 120.03 619.443 122.636C624.049 125.242 629.277 126.545 635.125 126.545C640.973 126.545 646.201 125.242 650.807 122.636C655.413 120.03 659.034 116.47 661.67 111.955C664.337 107.439 665.67 102.303 665.67 96.5455V34.9091ZM697.67 128V34.9091H724.943C730.155 34.9091 734.761 36.0758 738.761 38.4091C742.792 40.7424 745.943 43.9545 748.216 48.0455C750.519 52.1364 751.67 56.8485 751.67 62.1818C751.67 67.4545 750.519 72.1364 748.216 76.2273C745.943 80.2879 742.792 83.4848 738.761 85.8182C734.761 88.1212 730.155 89.2727 724.943 89.2727H699.125V86.3636H724.943C729.61 86.3636 733.731 85.3333 737.307 83.2727C740.883 81.2121 743.686 78.3636 745.716 74.7273C747.746 71.0909 748.761 66.9091 748.761 62.1818C748.761 57.4242 747.746 53.2121 745.716 49.5455C743.686 45.8788 740.883 43.0151 737.307 40.9545C733.731 38.8636 729.61 37.8182 724.943 37.8182H700.58V128H697.67Z" fill="white"/>
</svg>
